<?xml version="1.0" encoding="UTF-8"?>
<svg width="50px" height="50px" viewBox="0 0 50 50" version="1.1" xmlns="http://www.w3.org/2000/svg" xmlns:xlink="http://www.w3.org/1999/xlink">
    <title>favicon</title>
    <g id="favicon" stroke="none" stroke-width="1" fill="none" fill-rule="evenodd">
        <rect fill="#29C768" x="0" y="0" width="50" height="50"></rect>
        <g id="logo-teardrop" transform="translate(13, 7)" fill-rule="nonzero">
            <path d="M15.9370007,1.06158899 C21.2181459,3.71242773 23.5766592,10.4936189 22.0293425,16.5954415 C20.1573146,23.9781732 14.5828372,29.9006529 9.95669254,35.2379907 C9.87534046,30.7877364 8.49096035,26.9616682 5.64665892,23.8430804 C3.18471229,21.1438268 1.10953674,19.3649746 0.279513001,15.3395208 C-1.75754329,5.45822264 7.73415349,-3.05574871 15.9370007,1.06158899" id="teardrop" fill="#FFFFFF"></path>
            <polygon id="blue" fill="#007AFF" points="14.4133685 18.6560365 18.283868 18.6560365 18.283868 6.98651552 14.4133685 6.98651552"></polygon>
            <polygon id="yellow" fill="#F39C12" points="9.3518745 18.6560365 13.2223741 18.6560365 13.2223741 4.98615262 9.3518745 4.98615262"></polygon>
            <polygon id="red" fill="#F2256C" points="4.29061211 18.6560365 8.16111222 18.6560365 8.16111222 8.32026431 4.29061211 8.32026431"></polygon>
        </g>
    </g>
</svg>